<svg xmlns="http://www.w3.org/2000/svg" version="1.1" xmlnsXlink="http://www.w3.org/1999/xlink" xmlnsSvgjs="http://svgjs.com/svgjs" width="1920" height="1080" preserveAspectRatio="none" viewBox="0 0 1920 1080">
    <g mask="url(&quot;#SvgjsMask1112&quot;)" fill="none">
        <rect width="1920" height="1080" x="0" y="0" fill="url(#SvgjsRadialGradient1113)"></rect>
        <path d="M794.618193902702 916.7132999085633L980.212182852043 661.7763703548504 706.6119866579761 628.1824904022133z" fill="rgba(148, 163, 184, 0.1)" class="triangle-float2"></path>
        <path d="M456.71013618072107 1127.5027549701458L626.6272337893056 957.5856573615613 456.710136180721 787.6685597529768 286.7930385721365 957.5856573615613z" fill="rgba(148, 163, 184, 0.1)" class="triangle-float2"></path>
        <path d="M1854.4951927921124 630.0405156986656L1577.115335349441 565.7238296500473 1645.7232788870083 804.9881629051814z" fill="rgba(148, 163, 184, 0.1)" class="triangle-float2"></path>
        <path d="M1212.17 177.32 a202.44 202.44 0 1 0 404.88 0 a202.44 202.44 0 1 0 -404.88 0z" fill="rgba(148, 163, 184, 0.1)" class="triangle-float2"></path>
        <path d="M1454.32 574.12 a290.19 290.19 0 1 0 580.38 0 a290.19 290.19 0 1 0 -580.38 0z" fill="rgba(148, 163, 184, 0.1)" class="triangle-float2"></path>
        <path d="M726.5129072450792 917.539784035481L745.8618619278499 1194.2427273700296 1022.5648052623983 1174.893772687259 1003.2158505796276 898.1908293527104z" fill="rgba(148, 163, 184, 0.1)" class="triangle-float2"></path>
        <path d="M1603.7340983665235 947.7868784007115L1705.4300105357179 1187.367433679112 1945.0105658141183 1085.6715215099177 1843.314653644924 846.0909662315172z" fill="rgba(148, 163, 184, 0.1)" class="triangle-float1"></path>
        <path d="M125.76 77.21 a303.01 303.01 0 1 0 606.02 0 a303.01 303.01 0 1 0 -606.02 0z" fill="rgba(148, 163, 184, 0.1)" class="triangle-float2"></path>
        <path d="M123.28 479.28 a242.93 242.93 0 1 0 485.86 0 a242.93 242.93 0 1 0 -485.86 0z" fill="rgba(148, 163, 184, 0.1)" class="triangle-float1"></path>
    </g>
    <defs>
        <mask id="SvgjsMask1112">
            <rect width="1920" height="1080" fill="#ffffff"></rect>
        </mask>
        <radialGradient cx="0%" cy="0%" r="2202.91" gradientUnits="userSpaceOnUse" id="SvgjsRadialGradient1113">
            <stop stop-color="rgba(241, 245, 249, 1)" offset="0.19"></stop>
            <stop stop-color="rgba(226, 232, 240, 1)" offset="1"></stop>
        </radialGradient>
        <style>
            @keyframes float1 {
                0%{transform: translate(0, 0)}
                50%{transform: translate(-10px, 0)}
                100%{transform: translate(0, 0)}
            }

            .triangle-float1 {
                animation: float1 5s infinite;
            }

            @keyframes float2 {
                0%{transform: translate(0, 0)}
                50%{transform: translate(-5px, -5px)}
                100%{transform: translate(0, 0)}
            }

            .triangle-float2 {
                animation: float2 4s infinite;
            }

            @keyframes float3 {
                0%{transform: translate(0, 0)}
                50%{transform: translate(0, -10px)}
                100%{transform: translate(0, 0)}
            }

            .triangle-float3 {
                animation: float3 6s infinite;
            }
        </style>
    </defs>
</svg>